<?xml version="1.0" encoding="utf-8"?>
<!-- Generator: Adobe Illustrator 16.0.0, SVG Export Plug-In . SVG Version: 6.00 Build 0)  -->
<!DOCTYPE svg PUBLIC "-//W3C//DTD SVG 1.1//EN" "http://www.w3.org/Graphics/SVG/1.1/DTD/svg11.dtd">
<svg version="1.1" id="Layer_1" xmlns="http://www.w3.org/2000/svg" xmlns:xlink="http://www.w3.org/1999/xlink" x="0px" y="0px"
	 width="20px" height="20px" viewBox="0 0 20 20" enable-background="new 0 0 20 20" xml:space="preserve">
<path fill="#989898" d="M9.566,2.775c-3.982,0-7.204,3.249-7.204,7.224c0,3.976,3.222,7.226,7.204,7.226c4,0,7.227-3.25,7.227-7.226
	C16.793,6.024,13.553,2.775,9.566,2.775z M13.014,12.159c0.389,0.397,0.389,1.055,0,1.45c-0.402,0.397-1.08,0.397-1.467,0
	l-1.98-1.986l-1.979,1.986c-0.388,0.397-1.063,0.397-1.45,0c-0.406-0.396-0.406-1.053,0-1.45l1.979-1.986L6.137,8.2
	c-0.406-0.396-0.406-1.07,0-1.45c0.388-0.397,1.063-0.397,1.45,0l1.979,1.972l1.98-1.972c0.388-0.397,1.063-0.397,1.468,0
	c0.389,0.38,0.389,1.054,0,1.45l-1.978,1.973L13.014,12.159z"/>
</svg>
