<?xml version="1.0" encoding="utf-8"?>
<!-- Generator: Adobe Illustrator 16.0.0, SVG Export Plug-In . SVG Version: 6.00 Build 0)  -->
<!DOCTYPE svg PUBLIC "-//W3C//DTD SVG 1.1//EN" "http://www.w3.org/Graphics/SVG/1.1/DTD/svg11.dtd">
<svg version="1.1" id="Layer_1" xmlns="http://www.w3.org/2000/svg" xmlns:xlink="http://www.w3.org/1999/xlink" x="0px" y="0px"
	 width="20px" height="20px" viewBox="0 0 20 20" enable-background="new 0 0 20 20" xml:space="preserve">
<path fill="#989898" d="M10,2.114c-4.357,0-7.886,3.531-7.886,7.886c0,4.356,3.531,7.887,7.886,7.887
	c4.356,0,7.886-3.529,7.886-7.887C17.886,5.646,14.356,2.114,10,2.114z M15.167,7.587L8.321,14.36l-3.514-3.513
	c-0.44-0.442-0.44-1.154,0-1.592c0.439-0.442,1.152-0.442,1.592,0l1.93,1.931l5.254-5.2c0.443-0.438,1.155-0.433,1.593,0.008
	C15.613,6.438,15.61,7.149,15.167,7.587z"/>
</svg>
