<?xml version="1.0" encoding="utf-8"?>
<!-- Generator: Adobe Illustrator 16.0.0, SVG Export Plug-In . SVG Version: 6.00 Build 0)  -->
<!DOCTYPE svg PUBLIC "-//W3C//DTD SVG 1.1//EN" "http://www.w3.org/Graphics/SVG/1.1/DTD/svg11.dtd">
<svg version="1.1" id="Layer_1" xmlns="http://www.w3.org/2000/svg" xmlns:xlink="http://www.w3.org/1999/xlink" x="0px" y="0px"
	 width="52px" height="52px" viewBox="0 0 52 52" enable-background="new 0 0 52 52" xml:space="preserve">
<path fill="none" stroke="#676767" stroke-width="0.5" stroke-miterlimit="10" d="M51.396,45.746c0,3.086-2.508,5.658-5.593,5.658
	H6.198c-3.086,0-5.594-2.572-5.594-5.658V6.222c0-3.119,2.508-5.626,5.594-5.626h39.541c3.214,0,5.657,2.507,5.657,5.626V45.746
	L51.396,45.746z"/>
<g>
	<path fill="#676767" d="M9.84,34.912c0.079-0.316,0.12-0.633,0.199-0.91c0.298-0.871,0.731-1.543,1.383-2.135
		c1.089-0.912,2.178-1.9,3.364-2.77c1.285-0.951,2.747-1.109,4.291-0.635c0.238,0.08,0.456,0.08,0.693-0.158
		c5.418-4.508,10.82-9.058,16.199-13.607c1.899-1.503,4.566-1.345,6.111,0.475c-0.041,0.079-0.158,0.079-0.199,0.158
		c-6.446,5.38-12.836,10.76-19.285,16.14c-0.275,0.236-0.393,0.475-0.316,0.869c0.24,1.781-0.373,3.244-1.741,4.352
		c-0.889,0.83-1.838,1.543-2.708,2.295c-2.729,2.254-6.604,1.188-7.713-2.135c-0.12-0.318-0.199-0.674-0.278-0.951
		C9.84,35.584,9.84,35.268,9.84,34.912z M17.533,30.916c-0.475,0-0.89,0.158-1.243,0.475c-1.028,0.791-2.038,1.623-3.007,2.533
		c-0.852,0.672-0.931,1.977-0.199,2.768c0.734,0.83,1.939,1.029,2.829,0.316c1.048-0.83,2.117-1.66,3.126-2.57
		c0.652-0.594,0.77-1.424,0.435-2.256C19.116,31.352,18.385,30.916,17.533,30.916z M27.426,26.169c0-0.87-0.654-1.503-1.465-1.503
		c-0.81,0-1.466,0.633-1.503,1.463c0,0.831,0.651,1.464,1.462,1.464C26.733,27.633,27.426,26.96,27.426,26.169z"/>
	<path fill="#676767" d="M9.84,16.122c0.158-0.514,0.278-1.107,0.535-1.582c1.284-2.69,4.767-3.6,7.158-1.741
		c1.089,0.871,2.237,1.82,3.285,2.809c1.247,1.147,1.661,2.65,1.386,4.232c-0.041,0.237,0,0.396,0.158,0.554
		c0.689,0.593,1.323,1.107,2.017,1.741c-1.049,0.87-2.137,1.819-3.244,2.69c-0.475-0.436-0.968-0.792-1.443-1.187
		c-0.12-0.158-0.26-0.158-0.455-0.079c-1.741,0.593-3.361,0.356-4.766-0.831c-1.029-0.831-2.039-1.701-3.007-2.571
		c-0.852-0.751-1.386-1.74-1.583-2.848c0-0.04,0-0.119-0.041-0.158C9.84,16.755,9.84,16.438,9.84,16.122z M17.533,21.146
		c0.241-0.079,0.497-0.079,0.734-0.158c1.503-0.514,1.819-2.413,0.614-3.521c-0.931-0.871-1.921-1.622-2.89-2.453
		c-0.592-0.475-1.285-0.593-2.016-0.356c-1.545,0.594-1.861,2.532-0.576,3.6c0.892,0.831,1.819,1.583,2.769,2.334
		C16.564,20.948,17.002,21.106,17.533,21.146z"/>
	<path fill="#676767" d="M42.16,27.039c-0.852,0-1.74,0-2.633,0c0-0.474,0-0.87,0-1.344c0.852,0,1.74,0,2.633,0
		C42.16,26.13,42.16,26.565,42.16,27.039z"/>
	<path fill="#676767" d="M41.882,36.852c-1.541,1.818-4.054,2.057-5.873,0.553c-2.909-2.453-5.836-4.906-8.703-7.359
		c-0.038,0-0.038,0-0.079-0.078c1.088-0.869,2.137-1.859,3.225-2.689C34.306,30.441,38.084,33.607,41.882,36.852z"/>
	<path fill="#676767" d="M38.163,26.96c-0.908,0-1.74,0-2.648,0c0-0.396,0-0.831,0-1.266c0.848,0,1.74,0,2.648,0
		C38.163,26.13,38.163,26.565,38.163,26.96z"/>
	<path fill="#676767" d="M34.147,25.695c0,0.475,0,0.87,0,1.266c-0.849,0-1.741,0-2.63,0c0-0.396,0-0.831,0-1.266
		C32.406,25.695,33.258,25.695,34.147,25.695z"/>
</g>
</svg>
