<?xml version="1.0" encoding="utf-8"?>
<!-- Generator: Adobe Illustrator 16.0.0, SVG Export Plug-In . SVG Version: 6.00 Build 0)  -->
<!DOCTYPE svg PUBLIC "-//W3C//DTD SVG 1.1//EN" "http://www.w3.org/Graphics/SVG/1.1/DTD/svg11.dtd">
<svg version="1.1" id="Layer_1" xmlns="http://www.w3.org/2000/svg" xmlns:xlink="http://www.w3.org/1999/xlink" x="0px" y="0px"
	 width="52px" height="52px" viewBox="0 0 52 52" enable-background="new 0 0 52 52" xml:space="preserve">
<path fill="none" stroke="#676767" stroke-width="0.5" stroke-miterlimit="10" d="M51.396,45.747c0,3.085-2.508,5.657-5.593,5.657
	H6.198c-3.086,0-5.594-2.572-5.594-5.657V6.222c0-3.119,2.508-5.626,5.594-5.626h39.542c3.214,0,5.657,2.507,5.657,5.626V45.747
	L51.396,45.747z"/>
<g id="Thumbs_up">
	<path fill="#676767" d="M30.839,36.531c0.414-0.774,2.663-5.173,2.596-9.178c0,0,0.067-1.374-0.98-1.801
		c-0.29-0.14-2.182-0.981-2.421-1.154c0,0-1.167-2.542-2.113-3.692c-2.148-2.613-3.916-3.951-4.398-4.331
		c-0.329-0.257-1.065-0.532-2.579-2.077c-1.151-1.239-1.27-2.579-2.148-2.579c-0.068,0-0.102,0-0.306,0.088
		c-0.464,0.136-2.579,1.819-0.811,4.637c0,0,0.845,1.411,2.359,2.68c0,0,2.04,1.789-0.21,3.128c0,0-1.475,0.771-3.316,0.669
		c-0.703-0.034-1.819-0.224-2.183-0.326c-0.374-0.034-1.542-0.414-2.454,0.153c-1.769,1.119-0.776,10.997,3.367,14.381
		c1.598,1.271,6.977,1.77,9.93,0.877c0,0,1.649-0.584,2.528-0.517c1.202,0.103,1.938-0.067,1.938-0.067S30.413,37.302,30.839,36.531
		z"/>
	<path fill="#676767" d="M37.487,25.481c-1.405-0.205-2.71-0.411-2.987-0.445c-0.29-0.034-0.29,0.275-0.068,0.376
		c0.239,0.14,0.585,0.602,0.687,1.477c0,0.638,0.499,4.795-2.919,10.535c-0.811,1.253-1.411,1.218-2.46,1.357
		c0.074,0.6,1.015,0.928,1.015,0.928s3.009,0.979,4.828,0.376c0,0,2.683-0.566,4.33-5.549c0.465-1.409,0.807-2.784,0.913-4.053
		c0.068-0.604,0.102-1.083,0.137-1.548C41.028,26.754,39.278,25.81,37.487,25.481z"/>
</g>
</svg>
