<?xml version="1.0" encoding="utf-8"?>
<!-- Generator: Adobe Illustrator 16.0.0, SVG Export Plug-In . SVG Version: 6.00 Build 0)  -->
<!DOCTYPE svg PUBLIC "-//W3C//DTD SVG 1.1//EN" "http://www.w3.org/Graphics/SVG/1.1/DTD/svg11.dtd">
<svg version="1.1" id="Layer_1" xmlns="http://www.w3.org/2000/svg" xmlns:xlink="http://www.w3.org/1999/xlink" x="0px" y="0px"
	 width="20px" height="20px" viewBox="0 0 20 20" enable-background="new 0 0 20 20" xml:space="preserve">
<g id="Calque_2">
	<path fill="#989898" d="M17.108,7.826l-1.066-1.453c-0.088-0.136-0.225-0.202-0.396-0.202h-5.055V5.219h1.109
		c0.262,0,0.487-0.227,0.487-0.477V1.838c0-0.272-0.226-0.499-0.487-0.499h-1.109V0.706c0-0.292-0.218-0.499-0.488-0.499
		c-0.283,0-0.487,0.227-0.487,0.499V1.34H4.322c-0.17,0-0.307,0.069-0.397,0.182L2.884,2.995c-0.137,0.16-0.137,0.408,0,0.568
		l1.042,1.429c0.09,0.136,0.261,0.202,0.397,0.202h5.293v0.976H8.267c-0.26,0-0.486,0.201-0.486,0.473v2.903
		c0,0.251,0.227,0.453,0.486,0.453h1.326v8.817H7.826c-0.272,0-0.511,0.207-0.511,0.478c0,0.318,0.239,0.499,0.488,0.499h4.522
		c0.283,0,0.488-0.203,0.488-0.499c0-0.272-0.227-0.478-0.488-0.478h-1.733v-8.792h5.055c0.171,0,0.308-0.069,0.42-0.182
		l1.042-1.428C17.255,8.234,17.255,7.982,17.108,7.826z M11.168,4.219H4.573L3.881,3.292l0.692-0.955h6.619L11.168,4.219z
		 M8.777,7.167h6.622l0.689,0.93l-0.689,0.951H8.777V7.167z"/>
</g>
</svg>
