<?xml version="1.0" encoding="utf-8"?>
<!-- Generator: Adobe Illustrator 16.0.0, SVG Export Plug-In . SVG Version: 6.00 Build 0)  -->
<!DOCTYPE svg PUBLIC "-//W3C//DTD SVG 1.1//EN" "http://www.w3.org/Graphics/SVG/1.1/DTD/svg11.dtd">
<svg version="1.1" id="Layer_1" xmlns="http://www.w3.org/2000/svg" xmlns:xlink="http://www.w3.org/1999/xlink" x="0px" y="0px"
	 width="52px" height="52px" viewBox="0 0 52 52" enable-background="new 0 0 52 52" xml:space="preserve">
<path fill="none" stroke="#676767" stroke-width="0.5" stroke-miterlimit="10" d="M51.562,45.738c0,3.085-2.508,5.657-5.593,5.657
	H6.363c-3.086,0-5.594-2.572-5.594-5.657V6.214c0-3.119,2.508-5.626,5.594-5.626h39.541c3.214,0,5.657,2.507,5.657,5.626V45.738
	L51.562,45.738z"/>
<g>
	<path fill="#676767" d="M31.073,31.477c-0.104,0.349-0.278,0.73-0.383,1.078c-0.4,1.393-0.835,2.817-1.218,4.209
		c0,0.069-0.035,0.174-0.069,0.313c-0.749,0.104-1.496,0.243-2.243,0.243c-1.931,0.139-3.81,0.21-5.74,0.139
		c-1.896,0-3.773-0.207-5.582-0.764c-0.47-0.104-0.939-0.419-1.357-0.626c-0.296-0.141-0.4-0.419-0.4-0.766
		c0.069-2.471,1.113-4.418,2.992-5.948c0.643-0.522,1.321-0.904,2-1.322c0.451-0.278,0.956-0.243,1.459,0
		c1.531,0.8,3.097,0.87,4.696,0.244c0.175-0.035,0.4-0.14,0.575-0.244c0.382-0.243,0.816-0.278,1.216-0.068
		c1.566,0.799,2.939,1.808,3.948,3.233C31.003,31.269,31.073,31.338,31.073,31.477C31.107,31.477,31.107,31.477,31.073,31.477
		C31.107,31.547,31.073,31.547,31.073,31.477z"/>
	<path fill="#676767" d="M23.055,17.946c2.679,0,4.852,2.191,4.852,4.835c0,2.712-2.173,4.869-4.852,4.869
		c-2.678,0-4.834-2.157-4.834-4.869C18.221,20.137,20.377,17.946,23.055,17.946z"/>
	<path fill="#676767" d="M17.577,23.65c0.209,1.357,0.853,2.47,1.879,3.374c-1.914,0.835-3.549,2.087-4.731,3.791
		c-0.209,0.314-0.348,0.731-0.574,1.01c-0.069,0.069-0.174,0.207-0.244,0.207c-1.67-0.068-3.356-0.138-4.991-0.66
		c-0.453-0.104-0.887-0.347-1.322-0.521c-0.278-0.141-0.418-0.488-0.383-0.836c0.069-2.435,1.218-4.244,3.13-5.635
		c0.47-0.348,0.922-0.591,1.427-0.869c0.382-0.209,0.747-0.209,1.147,0c1.495,0.729,3.026,0.799,4.556,0.139
		C17.472,23.65,17.508,23.65,17.577,23.65z"/>
	<path fill="#676767" d="M38.012,25.564c1.357,1.355,2.714,2.678,4.035,4.035c-0.035,0.035-0.068,0.104-0.175,0.174
		c-2.034,2.053-4.104,4.104-6.174,6.087c-0.137,0.14-0.346,0.278-0.557,0.348c-1.426,0.452-2.886,0.87-4.347,1.323
		c-0.227,0-0.4,0-0.574-0.175c-0.175-0.14-0.208-0.382-0.14-0.592c0.279-1.043,0.644-2.087,0.922-3.13
		c0.209-1.112,0.783-1.947,1.565-2.679c1.775-1.669,3.497-3.443,5.234-5.183C37.872,25.702,37.943,25.632,38.012,25.564z
		 M32.395,32.833c-0.208,0.731-0.365,1.393-0.608,1.983c-0.139,0.417-0.07,0.73,0.243,0.904c0.105,0.069,0.295,0.104,0.4,0.069
		c0.573-0.104,1.13-0.278,1.67-0.418c0.173-0.035,0.365-0.104,0.608-0.173c-0.399-0.313-0.436-0.592-0.436-0.94
		c0-0.312-0.033-0.625-0.033-0.973c-0.279,0-0.558,0-0.818-0.07C33.072,33.216,32.639,33.286,32.395,32.833z"/>
	<path fill="#676767" d="M10.951,18.85c0-2.295,1.738-4.174,3.948-4.383c2.243-0.174,4.313,1.357,4.713,3.548
		c0.035,0.244,0,0.383-0.192,0.522c-1.129,1.043-1.773,2.295-1.878,3.791c0,0.243-0.07,0.383-0.331,0.453
		C14.325,24.172,10.916,22.084,10.951,18.85z"/>
	<path fill="#676767" d="M30.828,14.571c2.314,0.036,4.228,1.844,4.313,4.104c0.104,2.366-1.582,4.383-3.93,4.626
		c-0.852,0.104-1.635-0.069-2.347-0.452c-0.141,0-0.211-0.139-0.211-0.279c-0.067-1.669-0.747-3.025-2.034-4.104
		c-0.139-0.069-0.139-0.208-0.104-0.348C26.898,16.033,28.725,14.571,30.828,14.571z"/>
	<path fill="#676767" d="M31.751,31.025c-1.356-1.914-2.99-3.131-5.061-4.001c0.99-0.904,1.634-1.948,1.896-3.27
		c0.556,0.14,1.061,0.348,1.634,0.418c1.026,0.139,2.069,0,2.992-0.556c0.313-0.174,0.677-0.21,0.99-0.07
		c1.114,0.487,2.07,1.218,2.956,2.086c-0.104,0-0.138,0.07-0.173,0.14c-0.921,0.905-1.896,1.809-2.818,2.783
		c-0.104,0.071-0.174,0.14-0.278,0.209c-0.104,0.069-0.242,0.069-0.295,0.14c-0.174,0.557-0.626,0.766-0.992,1.182
		C32.36,30.363,32.064,30.711,31.751,31.025z"/>
	<path fill="#676767" d="M40.29,23.442c0.192-0.208,0.436-0.452,0.68-0.661c0.469-0.418,1.182-0.418,1.65,0
		c0.731,0.73,1.462,1.46,2.193,2.156c0.416,0.487,0.416,1.251,0,1.739c-0.279,0.208-0.488,0.418-0.663,0.626
		C42.864,25.98,41.578,24.729,40.29,23.442z"/>
	<path fill="#676767" d="M39.509,24.103c1.39,1.287,2.711,2.643,4.052,4.001c-0.279,0.244-0.557,0.522-0.8,0.729
		c-1.358-1.321-2.715-2.644-4.069-4C38.985,24.589,39.265,24.311,39.509,24.103z"/>
	<polyline fill="#676767" points="31.751,31.025 37.159,25.632 33.994,26.745 32.324,28.311 	"/>
</g>
</svg>
