<?xml version="1.0" encoding="UTF-8" standalone="no"?>
<!DOCTYPE svg PUBLIC "-//W3C//DTD SVG 1.1//EN" "http://www.w3.org/Graphics/SVG/1.1/DTD/svg11.dtd">
<svg version="1.1" xmlns="http://www.w3.org/2000/svg" xmlns:xlink="http://www.w3.org/1999/xlink" viewBox="0 0 20 20" width="20" height="20"><defs><path fill="#999999" d="M11.04 15.72C10.84 15.76 10.66 15.79 10.47 15.8C10.47 15.86 10.47 16.15 10.47 16.66L9.53 16.66C9.53 16.14 9.53 15.85 9.53 15.79C9.34 15.77 9.15 15.74 8.97 15.69C8.62 15.6 8.32 15.47 8.05 15.29C7.79 15.1 7.58 14.87 7.43 14.59C7.28 14.31 7.2 13.97 7.2 13.58C7.29 13.58 7.99 13.58 8.07 13.58C8.07 13.85 8.13 14.08 8.25 14.28C8.36 14.47 8.51 14.63 8.7 14.75C8.88 14.88 9.1 14.97 9.34 15.03C9.59 15.09 9.84 15.12 10.11 15.12C10.31 15.12 10.52 15.1 10.73 15.06C10.95 15.03 11.13 14.97 11.3 14.88C11.48 14.8 11.61 14.68 11.71 14.53C11.82 14.38 11.87 14.19 11.87 13.96C11.87 13.74 11.81 13.56 11.68 13.43C11.55 13.29 11.38 13.18 11.17 13.09C10.96 13 10.72 12.93 10.46 12.88C10.38 12.86 9.73 12.73 9.64 12.71C9.36 12.66 9.09 12.59 8.83 12.52C8.56 12.44 8.32 12.34 8.11 12.22C7.9 12.1 7.73 11.94 7.6 11.75C7.48 11.56 7.41 11.31 7.41 11.02C7.41 10.7 7.49 10.42 7.63 10.19C7.77 9.95 7.96 9.76 8.2 9.61C8.43 9.46 8.7 9.34 9.01 9.27C9.18 9.22 9.35 9.2 9.53 9.18C9.53 9.13 9.53 8.84 9.53 8.32L10.47 8.32C10.47 8.84 10.47 9.13 10.47 9.19C10.63 9.21 10.78 9.24 10.93 9.27C11.24 9.35 11.51 9.47 11.74 9.64C11.97 9.8 12.15 10.02 12.28 10.27C12.42 10.52 12.49 10.82 12.5 11.17C12.41 11.17 11.71 11.17 11.62 11.17C11.57 10.72 11.4 10.38 11.08 10.18C10.77 9.98 10.38 9.87 9.9 9.87C9.7 9.87 9.51 9.89 9.33 9.93C9.13 9.96 8.97 10.02 8.82 10.1C8.68 10.19 8.56 10.3 8.47 10.44C8.38 10.58 8.34 10.75 8.34 10.96C8.34 11.16 8.4 11.31 8.53 11.44C8.66 11.56 8.83 11.66 9.04 11.74C9.25 11.82 9.48 11.88 9.76 11.93C10.02 11.98 10.29 12.04 10.57 12.09C10.84 12.15 11.12 12.22 11.38 12.3C11.65 12.38 11.89 12.49 12.1 12.63C12.31 12.77 12.48 12.94 12.61 13.15C12.73 13.35 12.8 13.62 12.8 13.93C12.8 14.27 12.71 14.56 12.55 14.8C12.38 15.04 12.17 15.24 11.91 15.39C11.65 15.54 11.36 15.65 11.04 15.72ZM10 5.82C8.68 5.82 7.94 5.82 7.79 5.82C5.22 7.34 2.77 10.51 1.41 13.4C0.05 16.31 1.68 19.17 4.79 19.17C5.14 19.17 6.87 19.17 10 19.17C13.12 19.17 14.86 19.17 15.21 19.17C18.31 19.17 19.94 16.31 18.59 13.4C17.23 10.51 14.78 7.34 12.2 5.82C11.91 5.82 11.17 5.82 10 5.82ZM12.24 0.83C12.17 0.83 12.11 0.83 12.06 0.84C11.7 0.91 11.37 1.09 11.03 1.21C10.71 1.32 10.35 1.37 10 1.41C9.65 1.37 9.28 1.32 8.97 1.21C8.63 1.09 8.3 0.91 7.93 0.84C7.89 0.83 7.83 0.83 7.76 0.83C7.32 0.83 6.45 0.95 6.25 0.99C4.64 1.26 5.81 2.48 7.06 4.3C7.09 4.34 7.25 4.57 7.54 4.98L10 4.98L12.46 4.98C12.74 4.57 12.91 4.34 12.94 4.3C14.18 2.48 15.36 1.26 13.75 0.99C13.54 0.95 12.68 0.83 12.24 0.83ZM19.14 18.16C18.27 19.33 16.84 20 15.21 20C14.86 20 13.12 20 10 20C6.87 20 5.14 20 4.79 20C3.16 20 1.73 19.33 0.86 18.16C-0.17 16.77 -0.28 14.87 0.55 13.08C2.01 9.97 4.4 7.04 6.77 5.44C6.77 5.44 6.76 5.44 6.76 5.43C6.46 5.01 6.3 4.78 6.27 4.73C6.09 4.48 5.92 4.23 5.75 4.01C4.88 2.78 4.25 1.9 4.66 1.05C4.88 0.58 5.36 0.29 6.08 0.16C6.21 0.14 7.2 0 7.76 0C7.89 0 8 0 8.11 0.02C8.47 0.08 8.77 0.21 9.04 0.32C9.13 0.36 9.22 0.4 9.32 0.43C9.49 0.5 9.72 0.54 10 0.57C10.28 0.54 10.51 0.5 10.68 0.43C10.77 0.4 10.87 0.36 10.96 0.32C11.23 0.21 11.53 0.08 11.89 0.02C11.99 0 12.11 0 12.24 0C12.8 0 13.79 0.14 13.92 0.16C14.64 0.29 15.11 0.58 15.34 1.05C15.74 1.9 15.11 2.78 14.25 4.01C14.08 4.23 13.9 4.48 13.73 4.73C13.7 4.78 13.54 5.01 13.24 5.43C13.24 5.44 13.23 5.44 13.23 5.44C15.6 7.04 17.99 9.97 19.44 13.08C20.28 14.87 20.16 16.77 19.14 18.16Z" id="f4Y5NFWtea"></path></defs><g><g><g></g><use xlink:href="#f4Y5NFWtea" opacity="1" fill="#000000" fill-opacity="1"></use><g><use xlink:href="#f4Y5NFWtea" opacity="1" fill-opacity="0" stroke="#000000" stroke-width="0" stroke-opacity="0"></use></g></g></g></svg>