<?xml version="1.0" encoding="utf-8"?>
<!-- Generator: Adobe Illustrator 16.0.0, SVG Export Plug-In . SVG Version: 6.00 Build 0)  -->
<!DOCTYPE svg PUBLIC "-//W3C//DTD SVG 1.1//EN" "http://www.w3.org/Graphics/SVG/1.1/DTD/svg11.dtd">
<svg version="1.1" id="Layer_1" xmlns="http://www.w3.org/2000/svg" xmlns:xlink="http://www.w3.org/1999/xlink" x="0px" y="0px"
	 width="20px" height="20px" viewBox="0 0 20 20" enable-background="new 0 0 20 20" xml:space="preserve">
<path fill="#989898" d="M15.395,3.256c-0.094,0-1.311-0.568-2.809-0.568c-0.939,0-1.691,0.183-2.34,0.568
	C9.588,3.639,8.749,3.711,7.717,3.711c-1.399,0-2.807-0.273-3.273-0.455V2.688c0-0.183-0.09-0.275-0.284-0.275
	c-0.183,0-0.183,0.183-0.183,0.275v0.75l0,0l0,0v7.677v0.271v6.545c0,0.201,0.093,0.291,0.275,0.291c0.191,0,0.284-0.09,0.284-0.291
	V11.68c0.556,0.275,1.871,0.549,3.181,0.549c1.124,0,1.964-0.184,2.622-0.549c0.556-0.291,1.308-0.475,2.146-0.475
	c1.408,0,2.625,0.475,2.625,0.475c0.09,0,0.19,0,0.283,0c0.09-0.109,0.09-0.109,0.09-0.184V3.529
	C15.576,3.438,15.482,3.346,15.395,3.256z"/>
</svg>
