<?xml version="1.0" encoding="utf-8"?>
<!-- Generator: Adobe Illustrator 16.0.0, SVG Export Plug-In . SVG Version: 6.00 Build 0)  -->
<!DOCTYPE svg PUBLIC "-//W3C//DTD SVG 1.1//EN" "http://www.w3.org/Graphics/SVG/1.1/DTD/svg11.dtd">
<svg version="1.1" id="Layer_1" xmlns="http://www.w3.org/2000/svg" xmlns:xlink="http://www.w3.org/1999/xlink" x="0px" y="0px"
	 width="20px" height="20px" viewBox="0 0 20 20" enable-background="new 0 0 20 20" xml:space="preserve">
<path fill-rule="evenodd" clip-rule="evenodd" fill="#999999" d="M11.645,19.266c-1.149,0-2.267,0-3.403,0c0-0.806,0-1.604,0-2.379
	c-0.688-0.279-1.275-0.669-1.757-1.195c-0.322-0.352-0.593-0.751-0.876-1.139c-0.066-0.086-0.12-0.139-0.234-0.129
	c-0.171,0.011-0.343,0.002-0.528,0.002c0,0.163,0,0.309,0,0.47c-0.325,0-0.635,0-0.967,0c0-0.147,0-0.298,0-0.47
	c-0.331,0-0.641,0-0.961,0c0-0.334,0-0.645,0-0.978c0.317,0,0.629,0,0.948,0c0-0.494,0-0.964,0-1.456c-0.319,0-0.631,0-0.952,0
	c0-0.485,0-0.95,0-1.44c0.312,0,0.622,0,0.947,0c0-1.208,0-2.395,0-3.598C2.797,7.333,1.845,7.152,1.077,6.307
	C0.552,5.729,0.382,5.027,0.524,4.22C1.1,4.836,1.775,5.179,2.639,5.196C2.351,4.758,2.274,4.312,2.425,3.81
	c0.157,0.055,0.298,0.104,0.386,0.135C2.849,4.218,2.844,4.47,2.923,4.691c0.136,0.384,0.393,0.497,0.795,0.434
	C5.082,4.91,6.242,4.308,7.208,3.319c0.751-0.766,1.51-1.522,2.277-2.271c0.154-0.15,0.239-0.301,0.208-0.514
	C9.686,0.48,9.696,0.425,9.699,0.359c0.16,0,0.31,0,0.469,0c0.004,0.031,0.019,0.063,0.014,0.089
	c-0.064,0.307,0.103,0.498,0.305,0.697c0.807,0.789,1.589,1.601,2.398,2.384c0.892,0.864,1.971,1.365,3.188,1.592
	c0.331,0.061,0.604,0.04,0.805-0.267c0.178-0.271,0.2-0.559,0.122-0.882c0.144-0.054,0.286-0.104,0.447-0.165
	c0.157,0.496,0.09,0.941-0.213,1.388c0.861-0.014,1.533-0.352,2.093-0.947c0.213,0.483,0.001,1.404-0.442,1.964
	c-0.34,0.432-0.778,0.712-1.307,0.854c-0.527,0.141-1.045,0.084-1.564-0.122c0,1.207,0,2.391,0,3.593c0.313,0,0.618,0,0.942,0
	c0,0.485,0,0.956,0,1.447c-0.303,0-0.613,0-0.939,0c0,0.494,0,0.971,0,1.463c0.313,0,0.618,0,0.94,0c0,0.328,0,0.637,0,0.971
	c-0.309,0-0.618,0-0.949,0c0,0.172,0,0.321,0,0.482c-0.325,0-0.633,0-0.959,0c0-0.147,0-0.297,0-0.472
	c-0.229,0-0.436-0.011-0.643,0.007c-0.052,0.005-0.108,0.084-0.143,0.143c-0.565,0.941-1.33,1.67-2.313,2.169
	c-0.092,0.047-0.191,0.077-0.306,0.122C11.645,17.65,11.645,18.449,11.645,19.266z M6.796,9.066c2.105,0,4.19,0,6.28,0
	c0-0.643,0-1.273,0-1.906c-2.1,0-4.188,0-6.28,0C6.796,7.8,6.796,8.426,6.796,9.066z M4.846,13.435c1.135,0,2.257,0,3.382,0
	c0-0.485,0-0.956,0-1.43c-1.131,0-2.254,0-3.382,0C4.846,12.482,4.846,12.949,4.846,13.435z M11.646,13.433c1.139,0,2.26,0,3.379,0
	c0-0.489,0-0.959,0-1.427c-1.136,0-2.258,0-3.379,0C11.646,12.488,11.646,12.954,11.646,13.433z M12.296,3.747
	c-0.797-0.798-1.589-1.594-2.345-2.352c-0.778,0.779-1.57,1.571-2.35,2.352c0.221,0,0.48,0.008,0.736-0.004
	C8.42,3.738,8.518,3.7,8.576,3.644c0.41-0.4,0.813-0.805,1.215-1.213C9.838,2.383,9.856,2.31,9.894,2.238
	c0.51,0.513,0.957,0.962,1.408,1.409c0.044,0.043,0.109,0.092,0.166,0.095C11.749,3.752,12.031,3.747,12.296,3.747z M6.796,10.531
	c2.107,0,4.19,0,6.278,0c0-0.162,0-0.313,0-0.463c-2.099,0-4.186,0-6.278,0C6.796,10.226,6.796,10.371,6.796,10.531z M9.699,16.83
	c0.169,0,0.319,0,0.473,0c0-1.778,0-3.544,0-5.308c-0.165,0-0.315,0-0.473,0C9.699,13.295,9.699,15.054,9.699,16.83z M4.851,7.152
	c0,0.649,0,1.28,0,1.912c0.324,0,0.633,0,0.945,0c0-0.645,0-1.275,0-1.912C5.477,7.152,5.171,7.152,4.851,7.152z M14.08,7.152
	c0,0.649,0,1.28,0,1.912c0.324,0,0.634,0,0.945,0c0-0.645,0-1.275,0-1.912C14.707,7.152,14.401,7.152,14.08,7.152z M6.673,14.433
	c0.435,0.585,0.933,1.038,1.553,1.367c0-0.47,0-0.914,0-1.367C7.714,14.433,7.212,14.433,6.673,14.433z M13.198,14.439
	c-0.537,0-1.044,0-1.547,0c0,0.458,0,0.9,0,1.363C12.274,15.465,12.771,15.018,13.198,14.439z M5.796,10.531c0-0.161,0-0.31,0-0.46
	c-0.324,0-0.634,0-0.949,0c0,0.159,0,0.306,0,0.46C5.168,10.531,5.478,10.531,5.796,10.531z M15.034,10.068
	c-0.329,0-0.639,0-0.952,0c0,0.162,0,0.312,0,0.46c0.326,0,0.636,0,0.952,0C15.034,10.371,15.034,10.23,15.034,10.068z"/>
</svg>
