<?xml version="1.0" encoding="utf-8"?>
<!-- Generator: Adobe Illustrator 16.0.0, SVG Export Plug-In . SVG Version: 6.00 Build 0)  -->
<!DOCTYPE svg PUBLIC "-//W3C//DTD SVG 1.1//EN" "http://www.w3.org/Graphics/SVG/1.1/DTD/svg11.dtd">
<svg version="1.1" id="Layer_1" xmlns="http://www.w3.org/2000/svg" xmlns:xlink="http://www.w3.org/1999/xlink" x="0px" y="0px"
	 width="50px" height="50px" viewBox="0 0 50 50" enable-background="new 0 0 50 50" xml:space="preserve">
<g>
	<path fill="#ffffff" d="M36.874,42.573h-4.833c-0.174,0-0.316-0.143-0.316-0.317v-1.177c0-0.175-0.144-0.316-0.318-0.316h-6.763
		c-0.174,0-0.317,0.142-0.317,0.316v1.177c0,0.175-0.144,0.317-0.317,0.317h-3.635c-0.175,0-0.317,0.143-0.317,0.317v1.36
		c0,0.175,0.142,0.317,0.317,0.317h16.499c0.175,0,0.318-0.143,0.318-0.317v-1.36C37.192,42.717,37.05,42.573,36.874,42.573z"/>
	<g>
		<path fill="#ffffff" d="M44.996,10.75H10.503c-1.201,0-2.176,0.977-2.176,2.177c0,0,0,4.15,0,5.676
			c0,0.752-0.057,0.857,0.447,0.857c0.267,0,0.563,0,0.863,0c0.423,0,0.336-0.105,0.336-0.871c0-1.523,0-5.663,0-5.663
			c0-0.287,0.243-0.529,0.53-0.529h34.493c0.286,0,0.529,0.242,0.529,0.529v21.25H20.934c0,0-0.867-0.001-0.867,1.119
			c0,0.664,0,1.994,0,2.658c0,1.119,0.895,1.119,0.895,1.119h24.034c1.2,0,2.177-0.977,2.177-2.177v-23.97
			C47.173,11.726,46.196,10.75,44.996,10.75z M27.75,37.194c-0.542,0-0.981-0.439-0.981-0.98c0-0.542,0.439-0.98,0.981-0.98
			c0.54,0,0.98,0.438,0.98,0.98C28.73,36.755,28.29,37.194,27.75,37.194z"/>
		<path fill="#ffffff" d="M16.71,21.404H4.231c-0.775,0-1.404,0.631-1.404,1.405v20.509c0,0.775,0.629,1.405,1.404,1.405H16.71
			c0.774,0,1.404-0.63,1.404-1.405V22.809C18.114,22.035,17.484,21.404,16.71,21.404z M8.932,22.837h3.078
			c0.146,0,0.266,0.119,0.266,0.267c0,0.146-0.12,0.266-0.266,0.266H8.932c-0.147,0-0.267-0.119-0.267-0.266
			C8.665,22.956,8.785,22.837,8.932,22.837z M10.452,43.736c-0.401,0-0.727-0.325-0.727-0.726c0-0.402,0.325-0.728,0.727-0.728
			c0.402,0,0.728,0.325,0.728,0.728C11.179,43.411,10.854,43.736,10.452,43.736z M16.907,41.601c0,0.187-0.15,0.34-0.333,0.34H4.368
			c-0.184,0-0.333-0.153-0.333-0.34V24.558c0-0.187,0.15-0.34,0.333-0.34h12.206c0.184,0,0.333,0.153,0.333,0.34V41.601z"/>
	</g>
</g>
</svg>
