<?xml version="1.0" encoding="utf-8"?>
<!-- Generator: Adobe Illustrator 16.0.0, SVG Export Plug-In . SVG Version: 6.00 Build 0)  -->
<!DOCTYPE svg PUBLIC "-//W3C//DTD SVG 1.1//EN" "http://www.w3.org/Graphics/SVG/1.1/DTD/svg11.dtd">
<svg version="1.1" id="Layer_1" xmlns="http://www.w3.org/2000/svg" xmlns:xlink="http://www.w3.org/1999/xlink" x="0px" y="0px"
	 width="50px" height="50px" viewBox="0 0 50 50" enable-background="new 0 0 50 50" xml:space="preserve">
<g>
	<path fill="#ffffff" d="M25.783,5.592H24.77c-0.541,0-0.98-0.438-0.98-0.98V4.58c0-1.257-1.018-2.275-2.274-2.275h-0.052
		c-1.257,0-2.275,1.018-2.275,2.275v0.033c0,0.542-0.438,0.98-0.979,0.98h-1.013c-1.078,0-1.952,0.874-1.952,1.953v0.04
		c0,1.078,0.875,1.952,1.952,1.952h8.588c1.078,0,1.953-0.874,1.953-1.952V7.544C27.736,6.466,26.861,5.592,25.783,5.592z
		 M21.49,5.592c-0.544,0-0.986-0.441-0.986-0.986c0-0.544,0.442-0.986,0.986-0.986s0.986,0.442,0.986,0.986
		C22.476,5.151,22.034,5.592,21.49,5.592z M25.88,43.726H9.327c-1.453,0-2.63-1.18-2.63-2.63V9.537c0-1.454,1.177-2.63,1.972-2.63
		h5.328c-0.044,0.217-0.068,0.444-0.068,0.678c0,1.801,1.466,3.267,3.267,3.267h8.587c1.801,0,3.267-1.466,3.267-3.308
		c0-0.217-0.022-0.431-0.063-0.637h4.009c2.11,0,3.287,1.176,3.287,2.63v19.757c-0.218-0.013-0.435-0.032-0.657-0.032
		c-0.91,0-1.787,0.126-2.63,0.347V14.139H9.984v26.299h15.154C25.21,41.594,25.463,42.699,25.88,43.726z M35.625,31.233
		c-4.721,0-8.547,3.827-8.547,8.548s3.826,8.547,8.547,8.547c4.72,0,8.547-3.826,8.547-8.547S40.345,31.233,35.625,31.233z
		 M41.21,38.022l-5.26,5.918c-0.26,0.292-0.62,0.442-0.983,0.442c-0.288,0-0.578-0.096-0.82-0.287l-3.288-2.63
		c-0.567-0.454-0.658-1.282-0.205-1.849c0.454-0.569,1.281-0.659,1.849-0.206l2.313,1.851l4.43-4.984
		c0.481-0.543,1.313-0.595,1.856-0.11C41.645,36.648,41.692,37.481,41.21,38.022z M29.708,25.315h-10.52
		c-0.363,0-0.657-0.293-0.657-0.658V24c0-0.363,0.294-0.658,0.657-0.658h10.52c0.363,0,0.658,0.295,0.658,0.658v0.657
		C30.366,25.022,30.071,25.315,29.708,25.315z M29.708,19.399h-10.52c-0.363,0-0.657-0.294-0.657-0.657v-0.658
		c0-0.364,0.294-0.657,0.657-0.657h10.52c0.363,0,0.658,0.293,0.658,0.657v0.658C30.366,19.104,30.071,19.399,29.708,19.399z
		 M26.421,30.576h-7.233c-0.363,0-0.657-0.296-0.657-0.657v-0.657c0-0.364,0.294-0.658,0.657-0.658h7.233
		c0.362,0,0.657,0.294,0.657,0.658v0.657C27.078,30.28,26.783,30.576,26.421,30.576z M25.106,36.493h-5.918
		c-0.363,0-0.657-0.296-0.657-0.657v-0.657c0-0.363,0.294-0.657,0.657-0.657h5.918c0.362,0,0.658,0.294,0.658,0.657v0.657
		C25.764,36.197,25.468,36.493,25.106,36.493z M17.272,16.968l-2.421,2.724c-0.119,0.134-0.286,0.203-0.453,0.203
		c-0.133,0-0.266-0.043-0.377-0.132l-1.514-1.211c-0.261-0.209-0.304-0.59-0.095-0.851c0.208-0.261,0.591-0.304,0.851-0.095
		l1.065,0.852l2.04-2.295c0.222-0.25,0.604-0.272,0.854-0.05C17.472,16.335,17.494,16.717,17.272,16.968z M17.272,22.817
		l-2.421,2.724c-0.119,0.134-0.286,0.202-0.453,0.202c-0.133,0-0.266-0.043-0.377-0.133l-1.514-1.209
		c-0.261-0.209-0.304-0.59-0.095-0.851c0.208-0.262,0.591-0.304,0.851-0.095l1.065,0.851l2.04-2.294
		c0.222-0.25,0.604-0.272,0.854-0.05C17.472,22.184,17.494,22.566,17.272,22.817z M17.272,28.41l-2.421,2.726
		c-0.119,0.135-0.286,0.202-0.453,0.202c-0.133,0-0.266-0.043-0.377-0.133l-1.514-1.209c-0.261-0.21-0.304-0.59-0.095-0.854
		c0.208-0.261,0.591-0.304,0.851-0.094l1.065,0.852l2.04-2.295c0.222-0.249,0.604-0.271,0.854-0.049
		C17.472,27.778,17.494,28.161,17.272,28.41z M17.272,34.045l-2.421,2.725c-0.119,0.135-0.286,0.202-0.453,0.202
		c-0.133,0-0.266-0.043-0.377-0.133l-1.514-1.209c-0.261-0.212-0.304-0.59-0.095-0.854c0.208-0.26,0.591-0.305,0.851-0.092
		l1.065,0.85l2.04-2.295c0.222-0.25,0.604-0.272,0.854-0.05S17.494,33.794,17.272,34.045z"/>
</g>
</svg>
