<?xml version="1.0" encoding="utf-8"?>
<!-- Generator: Adobe Illustrator 16.0.0, SVG Export Plug-In . SVG Version: 6.00 Build 0)  -->
<!DOCTYPE svg PUBLIC "-//W3C//DTD SVG 1.1//EN" "http://www.w3.org/Graphics/SVG/1.1/DTD/svg11.dtd">
<svg version="1.1" id="Layer_1" xmlns="http://www.w3.org/2000/svg" xmlns:xlink="http://www.w3.org/1999/xlink" x="0px" y="0px"
	 width="50px" height="50px" viewBox="0 0 50 50" enable-background="new 0 0 50 50" xml:space="preserve">
<g>
	<path fill="#ffffff" d="M45.018,10.748v30.827c0,1.219-0.473,2.362-1.334,3.229c-0.862,0.863-2.006,1.339-3.225,1.339H29.567
		c0.562-0.589,1.021-1.272,1.338-2.038h9.549c0.673,0,1.312-0.265,1.79-0.743c0.476-0.476,0.74-1.109,0.74-1.782V10.748
		c0-0.678-0.261-1.313-0.738-1.789c-0.476-0.476-1.11-0.742-1.787-0.742h-9.554c-0.316-0.763-0.776-1.449-1.338-2.037h10.887
		c1.224,0,2.367,0.476,3.229,1.338C44.545,8.379,45.018,9.525,45.018,10.748z M39.007,23.847v16.62c0,0.396,0.324,0.712,0.714,0.712
		c0.395,0,0.711-0.315,0.711-0.712v-16.62c0-0.395-0.316-0.712-0.711-0.712C39.331,23.134,39.007,23.452,39.007,23.847z
		 M35.264,23.847v16.62c0,0.396,0.321,0.712,0.711,0.712c0.396,0,0.714-0.315,0.714-0.712v-16.62c0-0.395-0.317-0.712-0.714-0.712
		C35.585,23.134,35.264,23.452,35.264,23.847z M31.52,23.847v16.62c0,0.396,0.322,0.712,0.712,0.712
		c0.394,0,0.711-0.315,0.711-0.712v-16.62c0-0.395-0.317-0.712-0.711-0.712C31.842,23.134,31.52,23.452,31.52,23.847z
		 M31.413,20.206v-8.622h7.401c0.436,0,0.841,0.167,1.15,0.476c0.304,0.305,0.472,0.712,0.467,1.146v5.387
		c0,0.894-0.725,1.617-1.617,1.617h-0.002L31.413,20.206L31.413,20.206z M16.893,25.49c0.52-0.426,0.974-0.889,1.352-1.392
		c-0.446-0.042-0.896-0.071-1.352-0.085V25.49z M19.831,24.322c0.463,0.086,0.905,0.188,1.316,0.31
		c-0.729,0.523-1.578,0.936-2.513,1.196C19.098,25.355,19.5,24.855,19.831,24.322z M14.109,24.099
		c0.446-0.042,0.896-0.071,1.355-0.085v1.48C14.945,25.069,14.491,24.602,14.109,24.099z M10.189,34.828
		c0,0.484-0.352,0.771-0.944,0.771c-0.146,0-0.244-0.009-0.33-0.022v-1.422c0.068-0.014,0.193-0.027,0.416-0.027
		C9.876,34.133,10.189,34.386,10.189,34.828z M12.522,24.322c0.334,0.533,0.737,1.039,1.197,1.506
		c-0.936-0.267-1.785-0.673-2.509-1.196C11.622,24.511,12.063,24.408,12.522,24.322z M13.942,35.029l0.321,1.094h-0.978
		c0.073-0.258,0.296-1.068,0.3-1.087c0.048-0.17,0.09-0.36,0.134-0.553c0.012-0.055,0.025-0.111,0.039-0.168
		C13.813,34.554,13.878,34.805,13.942,35.029z M18.639,14.213c0.9,0.254,1.724,0.644,2.432,1.141
		c-0.403,0.117-0.837,0.214-1.287,0.296C19.458,15.139,19.076,14.659,18.639,14.213z M15.464,14.544v1.394
		c-0.438-0.012-0.871-0.038-1.299-0.082C14.534,15.384,14.972,14.946,15.464,14.544z M18.188,15.861
		c-0.424,0.039-0.857,0.068-1.295,0.08v-1.394C17.386,14.951,17.819,15.389,18.188,15.861z M7.546,6.175
		c-1.218,0-2.367,0.476-3.229,1.338c-0.862,0.866-1.338,2.012-1.334,3.229V41.57c-0.004,1.218,0.472,2.366,1.334,3.229
		c0.862,0.86,2.012,1.338,3.229,1.338H24h0.819c1.579-0.004,2.968-0.814,3.787-2.038l0,0c0.111-0.165,0.211-0.347,0.302-0.527
		c0.011-0.025,0.024-0.057,0.038-0.084c0.17-0.364,0.291-0.761,0.36-1.169c0.009-0.038,0.013-0.083,0.021-0.122
		c0.027-0.206,0.048-0.412,0.048-0.627V20.209l0,0v-8.62l0,0v-0.841c0-0.215-0.021-0.421-0.048-0.626
		c-0.005-0.043-0.012-0.085-0.018-0.124c-0.068-0.412-0.188-0.802-0.36-1.171C28.938,8.8,28.924,8.77,28.91,8.745
		c-0.088-0.185-0.188-0.361-0.299-0.528l0,0c-0.815-1.222-2.209-2.033-3.792-2.037H24L7.546,6.175z M9.253,36.619
		c-0.142,0-0.249-0.007-0.338-0.016v1.839H7.637v-5.211l0.051-0.01c0.425-0.072,0.961-0.106,1.587-0.106
		c0.726,0,1.257,0.136,1.618,0.429c0.364,0.283,0.575,0.738,0.575,1.245c0,0.528-0.176,0.98-0.494,1.269
		C10.575,36.427,9.983,36.619,9.253,36.619z M14.869,38.442l-0.399-1.325H13.08l-0.365,1.325h-1.33l1.608-5.284h1.622l1.647,5.284
		H14.869z M18.386,38.52c-0.622,0-1.21-0.17-1.493-0.328l-0.039-0.023l0.266-1.08l0.069,0.039c0.292,0.153,0.776,0.316,1.265,0.316
		c0.481,0,0.759-0.179,0.759-0.498c0-0.278-0.219-0.45-0.824-0.663c-0.973-0.35-1.467-0.879-1.467-1.593
		c0-0.946,0.828-1.607,2.016-1.607c0.519,0,0.973,0.09,1.342,0.265l0.043,0.022l-0.292,1.056l-0.069-0.034
		c-0.176-0.091-0.544-0.242-1.042-0.242c-0.476,0-0.691,0.22-0.691,0.439c0,0.278,0.232,0.41,0.922,0.668
		c0.948,0.354,1.373,0.845,1.373,1.602C20.521,37.625,19.964,38.52,18.386,38.52z M22.581,38.52c-0.618,0-1.205-0.17-1.493-0.328
		l-0.039-0.023l0.266-1.08l0.068,0.039c0.288,0.153,0.776,0.316,1.265,0.316c0.481,0,0.76-0.179,0.76-0.498
		c0-0.278-0.219-0.45-0.824-0.663c-0.974-0.35-1.467-0.879-1.467-1.593c0-0.946,0.828-1.607,2.016-1.607
		c0.52,0,0.974,0.09,1.347,0.265l0.047,0.022l-0.296,1.056l-0.069-0.034c-0.176-0.091-0.544-0.242-1.046-0.242
		c-0.476,0-0.69,0.22-0.69,0.439c0,0.278,0.228,0.41,0.917,0.668c0.948,0.354,1.373,0.845,1.373,1.602
		C24.716,37.625,24.159,38.52,22.581,38.52z M23.108,24.816c-0.042,0.056-0.09,0.098-0.146,0.138
		c-1.643,1.616-4.075,2.643-6.786,2.643c-2.732,0-5.177-1.045-6.82-2.678c-0.021-0.018-0.039-0.034-0.055-0.051
		c-0.88-0.893-1.514-1.957-1.836-3.119h1.492c0.232,0.644,0.587,1.248,1.051,1.783c0.562-0.213,1.184-0.389,1.853-0.531
		c-0.163-0.406-0.287-0.828-0.386-1.252h1.459c0.094,0.343,0.21,0.682,0.36,1.013c0.703-0.09,1.433-0.146,2.166-0.167v-0.846h1.424
		v0.846c0.738,0.02,1.463,0.077,2.166,0.167c0.15-0.326,0.266-0.669,0.36-1.013h1.467c-0.098,0.425-0.223,0.846-0.386,1.252
		c0.669,0.142,1.291,0.317,1.853,0.531c0.458-0.539,0.814-1.14,1.046-1.783h1.492C24.575,22.89,23.962,23.937,23.108,24.816z
		 M25.137,20.021c0,0.24-0.018,0.476-0.039,0.708H7.259c-0.026-0.232-0.039-0.472-0.039-0.708c0-0.235,0.013-0.472,0.039-0.703
		h17.838C25.125,19.549,25.137,19.78,25.137,20.021z M23.399,18.296c-0.24-0.669-0.613-1.295-1.102-1.849
		c-0.554,0.206-1.167,0.378-1.828,0.514c0.181,0.435,0.313,0.88,0.421,1.335h-1.476c-0.103-0.373-0.231-0.742-0.398-1.094
		c-0.691,0.086-1.403,0.138-2.127,0.159v0.935h-1.424v-0.931c-0.72-0.021-1.437-0.073-2.127-0.16
		c-0.167,0.352-0.295,0.721-0.398,1.095h-1.471c0.103-0.454,0.24-0.901,0.416-1.334c-0.656-0.137-1.269-0.309-1.822-0.514
		c-0.489,0.552-0.862,1.179-1.103,1.848H7.465c0.33-1.184,0.982-2.269,1.883-3.17c0.021-0.025,0.043-0.042,0.068-0.063
		c1.643-1.6,4.062-2.621,6.76-2.621c2.698,0,5.113,1.017,6.756,2.616c0.026,0.021,0.052,0.043,0.077,0.073
		c0.901,0.9,1.552,1.981,1.879,3.165L23.399,18.296L23.399,18.296z M11.287,15.354c0.708-0.493,1.531-0.883,2.428-1.136
		c-0.438,0.445-0.819,0.926-1.141,1.432C12.123,15.564,11.69,15.465,11.287,15.354z"/>
</g>
</svg>
