<?xml version="1.0" encoding="utf-8"?>
<!-- Generator: Adobe Illustrator 16.0.0, SVG Export Plug-In . SVG Version: 6.00 Build 0)  -->
<!DOCTYPE svg PUBLIC "-//W3C//DTD SVG 1.1//EN" "http://www.w3.org/Graphics/SVG/1.1/DTD/svg11.dtd">
<svg version="1.1" id="Layer_1" xmlns="http://www.w3.org/2000/svg" xmlns:xlink="http://www.w3.org/1999/xlink" x="0px" y="0px"
	 width="50px" height="50px" viewBox="0 0 50 50" enable-background="new 0 0 50 50" xml:space="preserve">
    	<g>
				<path fill="#ffffff" d="M41.292,19.123H18.831c-2.175,0-3.958,1.782-3.958,3.958v14.225c0,2.176,1.783,3.958,3.958,3.958h22.461
					c2.176,0,3.958-1.782,3.958-3.958V23.081C45.259,20.896,43.468,19.123,41.292,19.123z M43.119,37.36
					c0,0.783-0.642,1.434-1.434,1.434H18.787c-0.784,0-1.436-0.642-1.436-1.434V27.35h25.768V37.36z M43.119,23.58H17.351v-0.544
					c0-0.784,0.642-1.435,1.436-1.435h22.899c0.783,0,1.434,0.642,1.434,1.435V23.58z"/>
			</g>
		
		<g>
			<path fill="#ffffff" d="M18.546,16.681h13.932l-2.835-5.74c-0.971-1.961-3.352-2.763-5.312-1.792L4.205,19.096
				c-1.961,0.972-2.764,3.351-1.792,5.313l6.311,12.755c0.847,1.72,2.799,2.558,4.591,2.067c-0.536-0.9-0.838-1.943-0.838-3.058
				V22.76C12.467,19.417,15.203,16.681,18.546,16.681z"/>
		</g>
		<g>
			<path fill="#ffffff" d="M21.407,37.253c0.775,0,1.48-0.348,1.943-0.9c0.473,0.553,1.168,0.9,1.943,0.9
				c1.417,0,2.567-1.15,2.567-2.567c0-1.418-1.15-2.567-2.567-2.567c-0.775,0-1.479,0.348-1.943,0.9
				c-0.471-0.553-1.167-0.9-1.943-0.9c-1.417,0-2.566,1.149-2.566,2.567C18.84,36.103,19.989,37.253,21.407,37.253z"/>
		</g>

</svg>
