<?xml version="1.0" encoding="utf-8"?>
<!-- Generator: Adobe Illustrator 16.0.0, SVG Export Plug-In . SVG Version: 6.00 Build 0)  -->
<!DOCTYPE svg PUBLIC "-//W3C//DTD SVG 1.1//EN" "http://www.w3.org/Graphics/SVG/1.1/DTD/svg11.dtd">
<svg version="1.1" id="Layer_1" xmlns="http://www.w3.org/2000/svg" xmlns:xlink="http://www.w3.org/1999/xlink" x="0px" y="0px"
	 width="20px" height="20px" viewBox="0 0 20 20" enable-background="new 0 0 20 20" xml:space="preserve">
<g>
	<path fill-rule="evenodd" clip-rule="evenodd" fill="#999999" d="M2.31,17.555c-0.292-0.164-0.586-0.328-0.879-0.496
		c-0.284-0.16-0.329-0.313-0.17-0.592c0.79-1.398,1.581-2.795,2.372-4.191c0.155-0.271,0.307-0.313,0.584-0.158
		c0.398,0.223,0.794,0.447,1.2,0.676c0.025-0.033,0.048-0.055,0.064-0.082c0.277-0.49,0.554-0.98,0.825-1.475
		c0.023-0.041,0.026-0.123,0-0.16c-0.184-0.261-0.183-0.53-0.063-0.815c0.44-1.046,1.039-1.998,1.743-2.883
		C8.357,6.911,8.75,6.458,9.156,6.02c0.839-0.908,1.942-0.927,2.896-0.103c0.562,0.485,1.146,0.948,1.75,1.382
		c0.553,0.398,1.187,0.629,1.866,0.736c0.432,0.068,0.687,0.467,0.604,0.887c-0.077,0.391-0.469,0.64-0.879,0.587
		c-0.679-0.087-1.345-0.22-1.961-0.528c-0.305-0.153-0.591-0.343-0.897-0.522c0.021,0.262,0.039,0.528,0.062,0.793
		c0.051,0.573,0.107,1.145,0.154,1.718c0.025,0.312-0.044,0.607-0.229,0.863c-0.064,0.09-0.053,0.152,0,0.238
		c1.012,1.662,1.863,3.406,2.655,5.182c0.23,0.518,0.077,1.029-0.38,1.287c-0.47,0.266-1.055,0.102-1.307-0.379
		c-0.134-0.254-0.246-0.518-0.365-0.779c-0.617-1.352-1.277-2.682-2.031-3.965C11.07,13.373,11.043,13.33,11,13.258
		c-0.042,0.07-0.075,0.123-0.104,0.178c-0.822,1.553-1.64,3.107-2.465,4.658c-0.278,0.521-0.808,0.709-1.296,0.475
		c-0.464-0.225-0.688-0.787-0.453-1.244C7.027,16.654,7.405,16,7.769,15.34c0.572-1.041,1.144-2.084,1.711-3.127
		c0.029-0.053,0.047-0.154,0.017-0.189c-0.249-0.295-0.296-0.648-0.327-1.012c-0.067-0.791-0.135-1.583-0.202-2.374
		C8.952,8.625,8.937,8.612,8.921,8.6c-0.015,0.033-0.024,0.07-0.045,0.099c-0.469,0.65-0.893,1.327-1.203,2.069
		c-0.118,0.281-0.275,0.515-0.597,0.593c-0.04,0.01-0.078,0.061-0.102,0.104c-1.122,1.965-2.243,3.932-3.359,5.9
		c-0.027,0.047-0.03,0.131-0.007,0.178c0.172,0.354,0.12,0.695-0.154,0.938c-0.253,0.223-0.616,0.248-0.892,0.063
		C2.262,18.342,2.16,18,2.289,17.635C2.295,17.613,2.3,17.592,2.31,17.555z M2.954,17.682c-0.15,0-0.266,0.119-0.265,0.27
		c0.002,0.15,0.126,0.271,0.272,0.268c0.142-0.006,0.252-0.121,0.254-0.266C3.219,17.801,3.104,17.684,2.954,17.682z"/>
	<path fill-rule="evenodd" clip-rule="evenodd" fill="#999999" d="M12.699,3.277c-0.002,1.075-0.878,1.95-1.945,1.944
		c-1.075-0.006-1.937-0.88-1.93-1.958c0.006-1.077,0.873-1.936,1.952-1.931C11.837,1.336,12.701,2.21,12.699,3.277z"/>
</g>
</svg>
